<mxfile host="app.diagrams.net" modified="2021-04-16T07:56:36.990Z" agent="5.0 (Macintosh; Intel Mac OS X 11_2_2) AppleWebKit/537.36 (KHTML, like Gecko) Chrome/89.0.4389.114 Safari/537.36" etag="f_kG1dCvPWN8_aW5CDJ-" version="14.5.10" type="github">
  <diagram id="86TCpwpJEMBFlHIx1PRZ" name="Page-1">
    <mxGraphModel dx="1282" dy="1843" grid="1" gridSize="10" guides="1" tooltips="1" connect="1" arrows="1" fold="1" page="1" pageScale="1" pageWidth="827" pageHeight="1169" math="0" shadow="0">
      <root>
        <mxCell id="0" />
        <mxCell id="1" parent="0" />
        <mxCell id="M00Jkyyd9K6bwBccqDg0-34" style="edgeStyle=orthogonalEdgeStyle;rounded=0;orthogonalLoop=1;jettySize=auto;html=1;" edge="1" parent="1" source="M00Jkyyd9K6bwBccqDg0-1" target="M00Jkyyd9K6bwBccqDg0-32">
          <mxGeometry relative="1" as="geometry">
            <Array as="points">
              <mxPoint x="320" />
            </Array>
          </mxGeometry>
        </mxCell>
        <mxCell id="M00Jkyyd9K6bwBccqDg0-37" value="Raw Data Dump" style="edgeLabel;html=1;align=center;verticalAlign=middle;resizable=0;points=[];" vertex="1" connectable="0" parent="M00Jkyyd9K6bwBccqDg0-34">
          <mxGeometry x="-0.055" y="1" relative="1" as="geometry">
            <mxPoint x="21" y="1" as="offset" />
          </mxGeometry>
        </mxCell>
        <mxCell id="M00Jkyyd9K6bwBccqDg0-1" value="RDBMS" style="shape=cylinder3;whiteSpace=wrap;html=1;boundedLbl=1;backgroundOutline=1;size=15;" vertex="1" parent="1">
          <mxGeometry x="290" y="30" width="60" height="80" as="geometry" />
        </mxCell>
        <mxCell id="M00Jkyyd9K6bwBccqDg0-10" style="edgeStyle=orthogonalEdgeStyle;rounded=0;orthogonalLoop=1;jettySize=auto;html=1;" edge="1" parent="1" source="M00Jkyyd9K6bwBccqDg0-2" target="M00Jkyyd9K6bwBccqDg0-1">
          <mxGeometry relative="1" as="geometry">
            <Array as="points">
              <mxPoint x="250" y="70" />
              <mxPoint x="250" y="70" />
            </Array>
          </mxGeometry>
        </mxCell>
        <mxCell id="M00Jkyyd9K6bwBccqDg0-14" value="Statefull Events" style="edgeLabel;html=1;align=center;verticalAlign=middle;resizable=0;points=[];" vertex="1" connectable="0" parent="M00Jkyyd9K6bwBccqDg0-10">
          <mxGeometry x="0.4" y="-2" relative="1" as="geometry">
            <mxPoint x="-18" y="-2" as="offset" />
          </mxGeometry>
        </mxCell>
        <mxCell id="M00Jkyyd9K6bwBccqDg0-15" style="edgeStyle=orthogonalEdgeStyle;rounded=0;orthogonalLoop=1;jettySize=auto;html=1;entryX=0;entryY=0;entryDx=0;entryDy=52.5;entryPerimeter=0;" edge="1" parent="1" source="M00Jkyyd9K6bwBccqDg0-2" target="M00Jkyyd9K6bwBccqDg0-11">
          <mxGeometry relative="1" as="geometry">
            <Array as="points">
              <mxPoint x="220" y="110" />
              <mxPoint x="220" y="183" />
            </Array>
          </mxGeometry>
        </mxCell>
        <mxCell id="M00Jkyyd9K6bwBccqDg0-17" value="Logs" style="edgeLabel;html=1;align=center;verticalAlign=middle;resizable=0;points=[];" vertex="1" connectable="0" parent="M00Jkyyd9K6bwBccqDg0-15">
          <mxGeometry x="0.1636" y="1" relative="1" as="geometry">
            <mxPoint as="offset" />
          </mxGeometry>
        </mxCell>
        <mxCell id="M00Jkyyd9K6bwBccqDg0-28" value="Real time Input" style="edgeStyle=orthogonalEdgeStyle;rounded=0;orthogonalLoop=1;jettySize=auto;html=1;" edge="1" parent="1" source="M00Jkyyd9K6bwBccqDg0-2" target="M00Jkyyd9K6bwBccqDg0-19">
          <mxGeometry x="0.2472" relative="1" as="geometry">
            <Array as="points">
              <mxPoint x="80" y="250" />
              <mxPoint x="349" y="250" />
            </Array>
            <mxPoint as="offset" />
          </mxGeometry>
        </mxCell>
        <mxCell id="M00Jkyyd9K6bwBccqDg0-2" value="FrontEnd Application" style="rounded=1;whiteSpace=wrap;html=1;" vertex="1" parent="1">
          <mxGeometry x="20" y="60" width="120" height="60" as="geometry" />
        </mxCell>
        <mxCell id="M00Jkyyd9K6bwBccqDg0-20" style="edgeStyle=orthogonalEdgeStyle;rounded=0;orthogonalLoop=1;jettySize=auto;html=1;" edge="1" parent="1" source="M00Jkyyd9K6bwBccqDg0-5" target="M00Jkyyd9K6bwBccqDg0-19">
          <mxGeometry relative="1" as="geometry">
            <Array as="points">
              <mxPoint x="190" y="360" />
              <mxPoint x="190" y="360" />
            </Array>
          </mxGeometry>
        </mxCell>
        <mxCell id="M00Jkyyd9K6bwBccqDg0-22" value="Real time Input" style="edgeLabel;html=1;align=center;verticalAlign=middle;resizable=0;points=[];" vertex="1" connectable="0" parent="M00Jkyyd9K6bwBccqDg0-20">
          <mxGeometry x="-0.1375" y="4" relative="1" as="geometry">
            <mxPoint x="11" y="4" as="offset" />
          </mxGeometry>
        </mxCell>
        <mxCell id="M00Jkyyd9K6bwBccqDg0-5" value="Sensors&lt;br&gt;" style="rounded=1;whiteSpace=wrap;html=1;" vertex="1" parent="1">
          <mxGeometry x="30" y="330" width="120" height="60" as="geometry" />
        </mxCell>
        <mxCell id="M00Jkyyd9K6bwBccqDg0-21" style="edgeStyle=orthogonalEdgeStyle;rounded=0;orthogonalLoop=1;jettySize=auto;html=1;" edge="1" parent="1" source="M00Jkyyd9K6bwBccqDg0-6" target="M00Jkyyd9K6bwBccqDg0-19">
          <mxGeometry relative="1" as="geometry" />
        </mxCell>
        <mxCell id="M00Jkyyd9K6bwBccqDg0-23" value="Real time Input" style="edgeLabel;html=1;align=center;verticalAlign=middle;resizable=0;points=[];" vertex="1" connectable="0" parent="M00Jkyyd9K6bwBccqDg0-21">
          <mxGeometry x="-0.36" y="-1" relative="1" as="geometry">
            <mxPoint x="-20" y="-1" as="offset" />
          </mxGeometry>
        </mxCell>
        <mxCell id="M00Jkyyd9K6bwBccqDg0-6" value="Sensors&lt;br&gt;" style="rounded=1;whiteSpace=wrap;html=1;" vertex="1" parent="1">
          <mxGeometry x="30" y="460" width="120" height="60" as="geometry" />
        </mxCell>
        <mxCell id="M00Jkyyd9K6bwBccqDg0-8" value="&lt;font style=&quot;font-size: 18px&quot;&gt;Sources&lt;/font&gt;" style="text;html=1;strokeColor=none;fillColor=none;align=center;verticalAlign=middle;whiteSpace=wrap;rounded=0;" vertex="1" parent="1">
          <mxGeometry x="30" y="-220" width="80" height="20" as="geometry" />
        </mxCell>
        <mxCell id="M00Jkyyd9K6bwBccqDg0-36" style="edgeStyle=orthogonalEdgeStyle;rounded=0;orthogonalLoop=1;jettySize=auto;html=1;" edge="1" parent="1" source="M00Jkyyd9K6bwBccqDg0-11" target="M00Jkyyd9K6bwBccqDg0-32">
          <mxGeometry relative="1" as="geometry">
            <Array as="points">
              <mxPoint x="390" y="170" />
              <mxPoint x="390" y="30" />
            </Array>
          </mxGeometry>
        </mxCell>
        <mxCell id="M00Jkyyd9K6bwBccqDg0-38" value="Raw Data Dump" style="edgeLabel;html=1;align=center;verticalAlign=middle;resizable=0;points=[];" vertex="1" connectable="0" parent="M00Jkyyd9K6bwBccqDg0-36">
          <mxGeometry x="0.1375" y="-1" relative="1" as="geometry">
            <mxPoint x="17" y="-1" as="offset" />
          </mxGeometry>
        </mxCell>
        <mxCell id="M00Jkyyd9K6bwBccqDg0-11" value="SPLUNK" style="shape=cylinder3;whiteSpace=wrap;html=1;boundedLbl=1;backgroundOutline=1;size=15;" vertex="1" parent="1">
          <mxGeometry x="290" y="130" width="60" height="80" as="geometry" />
        </mxCell>
        <mxCell id="M00Jkyyd9K6bwBccqDg0-16" value="" style="endArrow=none;dashed=1;html=1;" edge="1" parent="1">
          <mxGeometry width="50" height="50" relative="1" as="geometry">
            <mxPoint x="170" y="540" as="sourcePoint" />
            <mxPoint x="170" y="-70" as="targetPoint" />
          </mxGeometry>
        </mxCell>
        <mxCell id="M00Jkyyd9K6bwBccqDg0-18" value="&lt;span style=&quot;font-size: 18px&quot;&gt;Application&amp;nbsp; Persistence Layer&lt;/span&gt;" style="text;html=1;strokeColor=none;fillColor=none;align=center;verticalAlign=middle;whiteSpace=wrap;rounded=0;" vertex="1" parent="1">
          <mxGeometry x="160" y="-220" width="300" height="20" as="geometry" />
        </mxCell>
        <mxCell id="M00Jkyyd9K6bwBccqDg0-19" value="KAFKA Cluster" style="points=[[0,0,0],[0.25,0,0],[0.5,0,0],[0.75,0,0],[1,0,0],[0,1,0],[0.25,1,0],[0.5,1,0],[0.75,1,0],[1,1,0],[0,0.25,0],[0,0.5,0],[0,0.75,0],[1,0.25,0],[1,0.5,0],[1,0.75,0]];outlineConnect=0;fontColor=#232F3E;gradientColor=#945DF2;gradientDirection=north;fillColor=#5A30B5;strokeColor=#ffffff;dashed=0;verticalLabelPosition=bottom;verticalAlign=top;align=center;html=1;fontSize=12;fontStyle=0;aspect=fixed;shape=mxgraph.aws4.resourceIcon;resIcon=mxgraph.aws4.managed_streaming_for_kafka;" vertex="1" parent="1">
          <mxGeometry x="310" y="330" width="78" height="78" as="geometry" />
        </mxCell>
        <mxCell id="M00Jkyyd9K6bwBccqDg0-26" value="" style="endArrow=none;dashed=1;html=1;" edge="1" parent="1">
          <mxGeometry width="50" height="50" relative="1" as="geometry">
            <mxPoint x="440" y="550" as="sourcePoint" />
            <mxPoint x="440" y="-60" as="targetPoint" />
          </mxGeometry>
        </mxCell>
        <mxCell id="M00Jkyyd9K6bwBccqDg0-29" value="&lt;h1&gt;Consideration:&lt;/h1&gt;&lt;div&gt;Delivery Gurantee to be at least Once. This will make sure that there is no message skiped, this however can generate duplicates which can be handled at the consumer end.&lt;/div&gt;" style="text;html=1;strokeColor=none;fillColor=none;spacing=5;spacingTop=-20;whiteSpace=wrap;overflow=hidden;rounded=0;" vertex="1" parent="1">
          <mxGeometry x="205" y="520" width="190" height="170" as="geometry" />
        </mxCell>
        <mxCell id="M00Jkyyd9K6bwBccqDg0-30" value="Datawarehouse" style="shape=datastore;whiteSpace=wrap;html=1;" vertex="1" parent="1">
          <mxGeometry x="700" y="290" width="120" height="130" as="geometry" />
        </mxCell>
        <mxCell id="M00Jkyyd9K6bwBccqDg0-39" style="edgeStyle=orthogonalEdgeStyle;rounded=0;orthogonalLoop=1;jettySize=auto;html=1;" edge="1" parent="1" source="M00Jkyyd9K6bwBccqDg0-32" target="M00Jkyyd9K6bwBccqDg0-33">
          <mxGeometry relative="1" as="geometry">
            <Array as="points">
              <mxPoint x="765" y="110" />
              <mxPoint x="765" y="110" />
            </Array>
          </mxGeometry>
        </mxCell>
        <mxCell id="M00Jkyyd9K6bwBccqDg0-32" value="Data Lake" style="shape=datastore;whiteSpace=wrap;html=1;" vertex="1" parent="1">
          <mxGeometry x="690" y="-60" width="150" height="120" as="geometry" />
        </mxCell>
        <mxCell id="M00Jkyyd9K6bwBccqDg0-41" style="edgeStyle=orthogonalEdgeStyle;rounded=0;orthogonalLoop=1;jettySize=auto;html=1;" edge="1" parent="1" source="M00Jkyyd9K6bwBccqDg0-33" target="M00Jkyyd9K6bwBccqDg0-30">
          <mxGeometry relative="1" as="geometry" />
        </mxCell>
        <mxCell id="M00Jkyyd9K6bwBccqDg0-42" value="Aggregate and Transform" style="edgeLabel;html=1;align=center;verticalAlign=middle;resizable=0;points=[];" vertex="1" connectable="0" parent="M00Jkyyd9K6bwBccqDg0-41">
          <mxGeometry x="-0.08" y="1" relative="1" as="geometry">
            <mxPoint as="offset" />
          </mxGeometry>
        </mxCell>
        <mxCell id="M00Jkyyd9K6bwBccqDg0-33" value="ETL Process" style="shape=process;whiteSpace=wrap;html=1;backgroundOutline=1;" vertex="1" parent="1">
          <mxGeometry x="700" y="130" width="120" height="60" as="geometry" />
        </mxCell>
        <mxCell id="M00Jkyyd9K6bwBccqDg0-44" value="&lt;h1&gt;Consideration:&lt;/h1&gt;&lt;p&gt;Data has to be transformed.&amp;nbsp;&lt;/p&gt;&lt;p&gt;Schema of Fact Tables and Dimension Tables has to be defiend.&lt;/p&gt;" style="text;html=1;strokeColor=none;fillColor=none;spacing=5;spacingTop=-20;whiteSpace=wrap;overflow=hidden;rounded=0;" vertex="1" parent="1">
          <mxGeometry x="820" y="290" width="190" height="120" as="geometry" />
        </mxCell>
      </root>
    </mxGraphModel>
  </diagram>
</mxfile>
